<?xml version="1.0" encoding="UTF-8" standalone="no"?>
<!-- Created with Inkscape (http://www.inkscape.org/) -->

<svg
   xmlns:dc="http://purl.org/dc/elements/1.1/"
   xmlns:cc="http://creativecommons.org/ns#"
   xmlns:rdf="http://www.w3.org/1999/02/22-rdf-syntax-ns#"
   xmlns:svg="http://www.w3.org/2000/svg"
   xmlns="http://www.w3.org/2000/svg"
   xmlns:sodipodi="http://sodipodi.sourceforge.net/DTD/sodipodi-0.dtd"
   xmlns:inkscape="http://www.inkscape.org/namespaces/inkscape"
   width="744.09448819"
   height="1052.3622047"
   id="svg2"
   version="1.1"
   inkscape:version="0.48.3.1 r9886"
   sodipodi:docname="whale5.svg">
  <defs
     id="defs4" />
  <sodipodi:namedview
     id="base"
     pagecolor="#ffffff"
     bordercolor="#666666"
     borderopacity="1.0"
     inkscape:pageopacity="0.0"
     inkscape:pageshadow="2"
     inkscape:zoom="0.7"
     inkscape:cx="118.39968"
     inkscape:cy="769.6319"
     inkscape:document-units="px"
     inkscape:current-layer="layer1"
     showgrid="false"
     inkscape:window-width="1920"
     inkscape:window-height="1145"
     inkscape:window-x="1918"
     inkscape:window-y="32"
     inkscape:window-maximized="1" />
  <metadata
     id="metadata7">
    <rdf:RDF>
      <cc:Work
         rdf:about="">
        <dc:format>image/svg+xml</dc:format>
        <dc:type
           rdf:resource="http://purl.org/dc/dcmitype/StillImage" />
        <dc:title></dc:title>
      </cc:Work>
    </rdf:RDF>
  </metadata>
  <g
     inkscape:label="Layer 1"
     inkscape:groupmode="layer"
     id="layer1">
    <rect
       style="fill:#000000;stroke:none"
       id="rect3782"
       width="1234.4064"
       height="1092.9851"
       x="-307.08636"
       y="9.8847561" />
    <path
       style="fill:#ffffff;stroke:none"
       d="m -121.23728,465.16199 c 82.448294,-55.58374 187.807176,-56.39217 290.48266,-57.20812 76.01301,-0.60407 338.43689,-2.28169 413.18404,-0.26313 74.74719,2.01856 209.11909,10.50474 219.96958,7.06761 7.85126,-2.48707 13.07809,-11.30008 16.59912,-13.90995 0,0 -192.4651,-14.06324 -204.57738,-16.60663 -12.11229,-2.54339 -20.24558,-7.32325 -20.24558,-7.32325 253.37506,7.35247 95.11079,-0.79225 245.63969,3.98765 32.35479,-40.95263 47.14711,-99.98899 29.06835,-142.8859 -11.72359,-27.81761 -107.72658,-36.05357 -207.3695,-27.95593 -99.6428,8.09764 -396.4932,38.98622 -550.538,82.12722 -109.5157402,30.67044 -236.59564,56.35977 -281.89722,152.5917 -47.5161,103.77659 -69.97865,106.50584 49.68424,20.37873 z"
       id="path3007"
       inkscape:connector-curvature="0"
       sodipodi:nodetypes="csssczccssscc"
       inkscape:export-filename="/home/jacob/www/portfolio/sprite/whale.png"
       inkscape:export-xdpi="21.342165"
       inkscape:export-ydpi="21.342165" />
  </g>
</svg>
